<?xml version="1.0" encoding="iso-8859-1"?>
<!-- Generator: Adobe Illustrator 16.0.0, SVG Export Plug-In . SVG Version: 6.00 Build 0)  -->
<!DOCTYPE svg PUBLIC "-//W3C//DTD SVG 1.1//EN" "http://www.w3.org/Graphics/SVG/1.1/DTD/svg11.dtd">
<svg version="1.1" id="Layer_1" xmlns="http://www.w3.org/2000/svg" xmlns:xlink="http://www.w3.org/1999/xlink" x="0px" y="0px"
	 width="512px" height="512px" viewBox="0 0 512 512" style="enable-background:new 0 0 512 512;" xml:space="preserve">
    <path d="m 15.64,213.212 117.92,105.865 -33.174,154.959 c -1.035,4.834 0.876,9.824 4.876,12.729 3.999,2.906 9.335,3.181 13.613,0.704 l 137.124,-79.434 137.124,79.434 c 1.944,1.126 4.107,1.684 6.265,1.684 2.588,0 5.167,-0.802 7.348,-2.387 4,-2.906 5.911,-7.896 4.876,-12.729 L 378.44,319.077 496.359,213.212 c 3.679,-3.302 5.065,-8.462 3.538,-13.164 -1.528,-4.702 -5.683,-8.061 -10.6,-8.571 L 331.671,175.143 267.425,30.279 c -2.004,-4.519 -6.483,-7.432 -11.427,-7.432 -4.944,0 -9.423,2.914 -11.427,7.433 L 180.329,175.143 22.702,191.477 c -4.917,0.51 -9.072,3.869 -10.6,8.571 -1.528,4.702 -0.141,9.862 3.538,13.164 z" />

<!-- previously:

<path d="M15.64,213.212l117.92,105.865l-33.174,154.959c-1.035,4.834,0.876,9.824,4.876,12.729
	c3.999,2.906,9.335,3.181,13.613,0.704l137.124-79.434l137.124,79.434c1.944,1.126,4.107,1.684,6.265,1.684
	c2.588,0,5.167-0.802,7.348-2.387c4-2.906,5.911-7.896,4.876-12.729L378.44,319.077l117.919-105.865
	c3.679-3.302,5.065-8.462,3.538-13.164c-1.528-4.702-5.683-8.061-10.6-8.571l-157.626-16.334L267.425,30.279
	c-2.004-4.519-6.483-7.432-11.427-7.432s-9.423,2.914-11.427,7.433l-64.242,144.863L22.702,191.477
	c-4.917,0.51-9.072,3.869-10.6,8.571S11.961,209.91,15.64,213.212z M190.109,199.263c4.455-0.462,8.322-3.272,10.138-7.366
	L255.999,66.18l55.754,125.717c1.816,4.094,5.683,6.904,10.138,7.366l136.793,14.176l-102.334,91.873
	c-3.333,2.992-4.81,7.538-3.873,11.918l28.788,134.479l-119.001-68.936c-1.938-1.123-4.102-1.684-6.266-1.684
	s-4.328,0.561-6.266,1.684l-119,68.935l28.789-134.479c0.938-4.379-0.54-8.926-3.873-11.918L53.314,213.439L190.109,199.263z"/> -->
</svg>
